# xmcd
#
# Track frame offsets:
#       150
#       11463
#       24449
#       41677
#       55225
#       66671
#       79882
#       94379
#       107026
#       121009
#       134685
#       148512
#       159182
#       172721
#       192335
#       205754
#       218109
#
# Disc length: 3044 seconds
#
# Revision: 1
# Processed by: cddbd v1.5.1PL0 Copyright (c) Steve Scherf et al.
# Submitted via: MusiCat 1.1
#
DISCID=ea0be211
DTITLE=Alexis Korner Blues Incorporated - R&B from the Marquee
DYEAR=1962
DGENRE=
TTITLE0=Gotta Move
TTITLE1=Rain Is Such A Lonely Sound
TTITLE2=I Got My Brand On You
TTITLE3=Spooky But Nice
TTITLE4=Keep Your hands Off
TTITLE5=i Wanna Put A Tiger In Your tank
TTITLE6=I Got My Mojo Working
TTITLE7=Finkles Cafe
TTITLE8=Hoochie Coochie man
TTITLE9=Downtown
TTITLE10=How Long How Long Blues
TTITLE11=I Thought I Heard That Train Whistle
TTITLE12=Early In The Morning
TTITLE13=Night Time Is The Right Time
TTITLE14=Sail On
TTITLE15=I Ain't Gonna Worry No more
TTITLE16=Built For Comfort
EXTD=Mobile Fidelity\n\nOriginal album was tracks 1-12, not sure where add'nal
EXTD=tracks come from
EXTT0=
EXTT1=
EXTT2=
EXTT3=
EXTT4=
EXTT5=
EXTT6=
EXTT7=
EXTT8=
EXTT9=
EXTT10=
EXTT11=
EXTT12=
EXTT13=
EXTT14=
EXTT15=
EXTT16=
PLAYORDER=
